<svg width="26" height="26" viewBox="0 0 26 26" fill="none" xmlns="http://www.w3.org/2000/svg">
<path d="M22.2857 15.7857C23.8242 15.7857 25.0714 14.5385 25.0714 13C25.0714 11.4615 23.8242 10.2143 22.2857 10.2143C20.7472 10.2143 19.5 11.4615 19.5 13C19.5 14.5385 20.7472 15.7857 22.2857 15.7857Z" stroke="#F8F8F8" stroke-width="1.85714" stroke-linecap="round" stroke-linejoin="round"/>
<path d="M13.0001 15.7857C14.5386 15.7857 15.7858 14.5385 15.7858 13C15.7858 11.4615 14.5386 10.2143 13.0001 10.2143C11.4616 10.2143 10.2144 11.4615 10.2144 13C10.2144 14.5385 11.4616 15.7857 13.0001 15.7857Z" stroke="#F8F8F8" stroke-width="1.85714" stroke-linecap="round" stroke-linejoin="round"/>
<path d="M3.7143 15.7857C5.25281 15.7857 6.50002 14.5385 6.50002 13C6.50002 11.4615 5.25281 10.2143 3.7143 10.2143C2.1758 10.2143 0.928589 11.4615 0.928589 13C0.928589 14.5385 2.1758 15.7857 3.7143 15.7857Z" stroke="#F8F8F8" stroke-width="1.85714" stroke-linecap="round" stroke-linejoin="round"/>
</svg>
